<svg xmlns="http://www.w3.org/2000/svg" viewBox="0 0 200 220" width="200" height="220">
  <rect width="200" height="220" fill="#faf8f3"/>
  <!-- 물 표면 -->
  <ellipse cx="100" cy="175" rx="70" ry="10" fill="#a8c8d8" opacity="0.4"/>
  <path d="M40 175 Q70 168 100 175 Q130 182 160 175" stroke="#6699aa" stroke-width="1.5" fill="none" opacity="0.5"/>
  <!-- 뒷다리 -->
  <path d="M68 148 Q50 155 38 165 Q42 170 50 168 Q62 158 72 152" fill="#5a7a3a" opacity="0.8"/>
  <path d="M132 148 Q150 155 162 165 Q158 170 150 168 Q138 158 128 152" fill="#5a7a3a" opacity="0.8"/>
  <!-- 뒷발가락 -->
  <path d="M38 165 Q34 168 32 172 M38 165 Q36 170 35 174 M38 165 Q40 170 40 174" stroke="#3d5a25" stroke-width="2" fill="none" opacity="0.7"/>
  <path d="M162 165 Q166 168 168 172 M162 165 Q164 170 165 174 M162 165 Q160 170 160 174" stroke="#3d5a25" stroke-width="2" fill="none" opacity="0.7"/>
  <!-- 몸통 -->
  <ellipse cx="100" cy="145" rx="42" ry="32" fill="#6a8c48" opacity="0.9"/>
  <!-- 배 -->
  <ellipse cx="100" cy="152" rx="28" ry="20" fill="#c8d8a0" opacity="0.7"/>
  <!-- 앞다리 -->
  <path d="M72 138 Q60 145 55 158 Q60 160 65 158 Q68 148 76 142" fill="#5a7a3a" opacity="0.8"/>
  <path d="M128 138 Q140 145 145 158 Q140 160 135 158 Q132 148 124 142" fill="#5a7a3a" opacity="0.8"/>
  <!-- 머리 -->
  <ellipse cx="100" cy="118" rx="36" ry="28" fill="#6a8c48" opacity="0.9"/>
  <!-- 눈 (크고 동그란) -->
  <ellipse cx="80" cy="108" rx="12" ry="13" fill="#f0e8a0" opacity="0.9"/>
  <ellipse cx="120" cy="108" rx="12" ry="13" fill="#f0e8a0" opacity="0.9"/>
  <ellipse cx="80" cy="109" rx="7" ry="8" fill="#2a1a00" opacity="0.9"/>
  <ellipse cx="120" cy="109" rx="7" ry="8" fill="#2a1a00" opacity="0.9"/>
  <circle cx="77" cy="107" r="2.5" fill="white" opacity="0.8"/>
  <circle cx="117" cy="107" r="2.5" fill="white" opacity="0.8"/>
  <!-- 고막 (눈보다 큼 - 황소개구리 특징) -->
  <ellipse cx="62" cy="113" rx="10" ry="11" fill="none" stroke="#4a5a30" stroke-width="2" opacity="0.5"/>
  <ellipse cx="138" cy="113" rx="10" ry="11" fill="none" stroke="#4a5a30" stroke-width="2" opacity="0.5"/>
  <!-- 입 -->
  <path d="M78 128 Q100 135 122 128" stroke="#3d5a25" stroke-width="2.5" fill="none" opacity="0.7"/>
  <!-- 등 무늬 -->
  <path d="M85 125 Q100 120 115 125" stroke="#4a6a30" stroke-width="1.5" fill="none" opacity="0.4"/>
  <path d="M80 133 Q100 128 120 133" stroke="#4a6a30" stroke-width="1.5" fill="none" opacity="0.3"/>
  <text x="100" y="210" text-anchor="middle" font-family="serif" font-size="11" fill="#8b7355" opacity="0.6">황소개구리</text>
</svg>
